<?xml version="1.0" encoding="UTF-8" standalone="no"?>

<svg version="1.1" viewBox="0 0 1301.3333 1478.6667"
   xmlns:xlink="http://www.w3.org/1999/xlink"
   xmlns="http://www.w3.org/2000/svg"
   xmlns:svg="http://www.w3.org/2000/svg">
   <path fill="currentColor" d="m 650.66663,1408.9123 v -68.4212 l 5.66666,-3.1478 c 154.55802,-85.8563 283.34704,-207.3303 372.17291,-351.03382 46.0528,-74.50483 85.7397,-167.57466 110.7171,-259.64277 15.462,-56.99392 28.8071,-130.60164 34.87,-192.33335 l 0.884,-9 h 60.6011 c 57.0724,0 60.5636,0.13587 59.9558,2.33334 -0.355,1.28333 -1.0346,8.03333 -1.5102,15 -2.0368,29.83259 -13.8404,110.02835 -21.2148,144.13619 -46.879,216.82531 -144.3238,402.08701 -289.47593,550.35061 -83.42741,85.2158 -167.72625,150.022 -269.33331,207.0547 -21.00432,11.7898 -61.42288,33.1252 -62.75372,33.1252 -0.31879,0 -0.57961,-30.7895 -0.57961,-68.4211 z m -135.35866,-8.6497 C 399.5771,1322.9525 299.06742,1229.3815 225.72042,1130.6667 136.90692,1011.1362 75.434616,878.79916 37.303815,725.04497 22.160533,663.98297 11.609354,600.83077 6.0532028,538.00003 -0.779781,460.73045 -1.2897611,366.62523 4.7128405,290.66668 c 2.8031128,-35.47135 2.6211209,-34.66667 7.8404485,-34.66667 4.93861,0 70.928168,-8.23854 94.525411,-11.80113 l 15.74536,-2.37716 -0.24228,117.42249 c -0.24231,117.43524 0.13919,131.89905 4.83806,183.42249 7.74402,84.91375 29.36417,181.63348 58.55853,261.967 33.1684,91.26881 76.9991,173.9349 131.15705,247.3664 29.81328,40.4231 66.07572,81.8521 105.03496,120 33.95991,33.2527 54.58629,51.0497 99.49625,85.8481 l 11.66667,9.0399 v 72.556 c 0,39.9058 -0.15,72.5241 -0.33333,72.4852 -0.18334,-0.039 -8.14474,-5.2889 -17.692,-11.6667 z m 32.13738,-437.74482 c -0.33684,-1.01808 -1.5349,-8.75106 -2.66235,-17.18439 -1.12745,-8.43334 -3.54499,-25.23334 -5.37231,-37.33334 -6.55758,-43.42245 -17.8073,-123.53734 -34.7305,-247.33335 -2.50621,-18.33333 -5.46492,-39.63333 -6.5749,-47.33333 -3.15846,-21.91047 -11.06015,-80.64817 -14.79776,-110.00001 -1.86762,-14.66667 -5.46701,-42.62688 -7.99865,-62.1338 -2.53164,-19.50693 -4.76181,-36.90693 -4.95594,-38.66667 l -0.35297,-3.19953 33.66667,-0.40713 c 27.0108,-0.32664 33.66814,-0.063 33.67413,1.33333 0.004,0.95725 1.20786,10.74046 2.67501,21.74046 1.46715,11 4.4505,35.00001 6.62965,53.33334 11.59158,97.52049 13.54842,113.5265 15.97486,130.66667 3.64125,25.72153 10.27414,77.38382 14.00606,109.09048 1.71056,14.5331 3.43071,26.74441 3.82255,27.13625 0.91991,0.9199 1.64406,-3.51162 4.93934,-30.22672 1.49252,-12.1 3.59325,-27.7 4.66829,-34.66667 1.07504,-6.96667 3.72383,-25.86667 5.88619,-42 3.58974,-26.7829 5.33008,-39.18531 13.47099,-96.00001 1.4711,-10.26666 4.17792,-29.76667 6.01515,-43.33333 1.83724,-13.56667 4.47301,-31.56667 5.85729,-40 1.38427,-8.43334 2.91747,-18.48334 3.40711,-22.33334 l 0.89027,-7 h 25.87488 c 14.23118,0 25.87428,0.45 25.87355,1 -0.004,2.93034 10.6114,82.16825 23.35498,174.33334 7.5255,54.42648 12.87668,94.58485 15.36838,115.33334 2.94963,24.56169 3.26529,26.07685 4.4445,21.33334 0.79799,-3.21004 9.48509,-71.52877 16.24865,-127.78569 1.79323,-14.91547 3.55191,-28.41547 3.90818,-30.00001 0.35627,-1.58454 2.1591,-16.68098 4.0063,-33.54765 1.8472,-16.86666 4.84037,-41.76667 6.65149,-55.33333 1.81112,-13.56667 5.17018,-40.26667 7.46457,-59.33334 2.29439,-19.06667 4.32674,-34.83569 4.51632,-35.04226 0.54212,-0.59071 65.17296,2.39948 65.81861,3.04514 0.5529,0.5529 -0.87386,12.5322 -8.33679,69.99712 -1.85713,14.3 -4.61917,35.6 -6.13787,47.33334 -8.03386,62.06906 -9.65602,74.27055 -13.2948,100 -4.61303,32.61831 -9.41673,68.31813 -14.00233,104.06175 -1.79189,13.96729 -4.15404,31.36729 -5.24923,38.66667 -1.0952,7.29938 -3.22725,23.47159 -4.73791,35.93826 -1.51066,12.46667 -4.19837,32.56667 -5.97268,44.66667 -1.77432,12.1 -4.79869,34.3 -6.72083,49.33334 -1.92214,15.03333 -4.83269,37.53333 -6.46788,50 l -2.97307,22.66667 -29.94363,-0.47788 c -16.469,-0.26283 -30.12861,-0.64781 -30.3547,-0.85551 -0.62176,-0.5712 -3.78877,-20.44904 -8.92211,-55.99995 -2.54134,-17.6 -7.03261,-48.5 -9.98061,-68.66667 -10.07288,-68.90653 -19.82561,-137.98797 -21.36484,-151.33334 -1.57819,-13.68317 -3.24361,-18.2142 -4.60411,-12.5262 -0.42004,1.75608 -2.23452,14.29286 -4.03219,27.85953 -2.81911,21.27537 -14.96045,105.79083 -28.73162,200.00001 -7.19446,49.21758 -8.93749,60.09516 -9.76181,60.91948 -0.44723,0.44723 -14.01029,1.10628 -30.14014,1.46456 -24.25861,0.53884 -29.43284,0.33151 -29.93944,-1.19964 z M 869.33328,677.33337 c 0,-157.23545 0.49726,-270.66668 1.18656,-270.66668 0.65261,0 6.80261,1.17666 13.66667,2.61481 60.14421,12.6013 108.11722,26.52391 129.14679,37.48065 32.7216,17.04853 61.1433,48.98742 71.8182,80.70587 3.4242,10.17425 5.3179,53.20923 3.0157,68.53201 -2.327,15.48764 -10.2066,30.19239 -23.0309,42.97959 l -10.3428,10.31292 5.6032,3.89739 c 17.1117,11.90225 27.5727,31.00502 30.337,55.39821 1.5661,13.81962 0.5379,58.34361 -1.649,71.4119 -3.0828,18.42158 -14.2767,42.94669 -28.1808,61.74255 -13.1455,17.77031 -35.4551,39.23229 -52.2373,50.25253 -27.33483,17.94979 -67.74517,35.09537 -120.85303,51.27636 -8.53585,2.60072 -16.18585,4.72857 -17,4.72857 -1.07997,0 -1.48029,-73.19766 -1.48029,-270.66668 z m 77.99999,178.76781 c 12.50307,-4.80903 33.83757,-14.41922 39.90754,-17.97646 12.44713,-7.2945 25.01749,-23.31092 30.30719,-38.61552 2.05,-5.93154 2.3707,-12.03812 2.4084,-45.86899 0.043,-38.84861 0.029,-39.04942 -3.1317,-44.0564 -4.4465,-7.04376 -11.8318,-13.17923 -18.13817,-15.06866 -4.4513,-1.33364 -9.47359,-1.10447 -29.68877,1.35475 -13.38213,1.62796 -25.68115,3.23466 -27.33115,3.57044 l -3,0.6105 v 78.41905 c 0,65.57382 0.34462,80.2055 1.88889,80.19615 0.0611,-3.7e-4 3.11111,-1.15456 6.77777,-2.56486 z m 14.94901,-222.78763 c 29.54166,-3.77005 33.51087,-5.10673 42.82642,-14.42228 4.2187,-4.21873 9.1451,-10.6451 10.9475,-14.28083 3.1442,-6.34232 3.2934,-7.83278 3.6787,-36.75127 0.3911,-29.34653 0.3174,-30.33136 -2.7952,-37.36943 -4.5552,-10.30022 -16.6536,-22.86984 -26.72819,-27.76921 -8.49598,-4.1317 -48.42009,-15.16103 -50.41566,-13.9277 -0.62108,0.38385 -1.12924,31.7875 -1.12924,69.78589 0,60.96186 0.44978,77.42132 2.11567,77.42132 0.24695,0 9.92195,-1.20892 21.5,-2.68649 z M 351.33331,919.20743 c -28.85525,-6.44478 -62.3268,-26.33795 -87.74508,-52.14959 -19.45298,-19.75402 -30.69561,-36.55008 -40.42349,-60.39113 -9.47617,-23.22416 -8.96739,-16.00264 -9.48371,-134.61077 -0.31845,-73.15126 -0.004,-110.26426 0.98861,-116.66667 3.44766,-22.23869 20.29055,-52.80215 40.0738,-72.71881 22.41491,-22.56604 53.80071,-41.80127 81.92321,-50.20778 10.2143,-3.05331 14.48012,-3.59055 28.66666,-3.61028 17.64486,-0.0245 21.58788,0.85041 37.26585,8.26934 9.83305,4.65306 22.23147,17.31197 27.80034,28.38441 9.43678,18.76287 8.74791,3.28817 9.25172,207.82722 0.33037,134.12761 0.0382,187.15523 -1.06769,193.7597 -1.6722,9.98682 -8.1491,24.10188 -14.65792,31.94387 -5.54553,6.6814 -18.24742,15.17928 -27.65836,18.50413 -10.3917,3.67134 -32.31664,4.48442 -44.93394,1.66636 z m 8.13191,-69.74796 c 3.00588,-1.36511 6.76292,-4.30445 8.34898,-6.53186 l 2.88375,-4.04984 -0.34899,-163.34134 c -0.3472,-162.50682 -0.36301,-163.36057 -3.09371,-167.10554 -1.50959,-2.07031 -5.40959,-5.15774 -8.66666,-6.86096 -7.71771,-4.03582 -17.40193,-3.2316 -31.64681,2.62811 -18.0109,7.40889 -27.63024,15.05181 -36.45225,28.96268 -8.16051,12.8678 -7.9274,8.51077 -7.51682,140.49535 l 0.37437,120.34397 3.01817,8.04506 c 7.64728,20.38414 31.75429,42.02854 53.48398,48.02045 8.67181,2.39123 13.33324,2.2472 19.61599,-0.60608 z M 1254.6666,373.89733 c -20.9,-3.203 -50.3,-7.69645 -65.3333,-9.98544 -15.0334,-2.28899 -39.6334,-6.47642 -54.6667,-9.30541 -80.5922,-15.16592 -156.20807,-36.51727 -227.99999,-64.37946 -75.59237,-29.33713 -164.85075,-76.3047 -237.33332,-124.88427 -8.43333,-5.65223 -16.12434,-10.72737 -17.09114,-11.27811 -1.08868,-0.62016 -5.40282,1.42918 -11.33333,5.38367 -84.55159,56.37937 -155.43647,94.10074 -241.99789,128.77912 -38.46351,15.40932 -86.36379,31.57877 -122.06035,41.20328 -8.16783,2.20221 -15.9006,4.32164 -17.18393,4.70985 -2.19913,0.66523 -2.33333,-2.89754 -2.33333,-61.94475 v -62.65058 l 4.12518,-0.90605 c 7.22641,-1.58718 42.39523,-13.44374 67.20815,-22.65805 88.29975,-32.79025 172.5197,-76.42685 243.99998,-126.422874 30.99161,-21.676708 72.37699,-53.1868278 74.61801,-56.8128644 1.69363,-2.74036115 4.43772,-1.3093745 16.84674,8.7852434 49.60892,40.356376 108.00872,79.000994 165.86857,109.759395 117.49182,62.45887 228.49785,99.65112 363.99995,121.95715 22.0588,3.63127 75.5545,10.92575 89.9131,12.26025 l 9.1578,0.85112 0.8282,6.82073 c 1.6122,13.27717 4.7355,63.18433 5.6212,89.82074 l 0.8977,27 -3.8757,-0.13952 c -2.1316,-0.0767 -20.9756,-2.76016 -41.8756,-5.96317 z" />
</svg>